<?xml version="1.0" encoding="UTF-8"?>
<!DOCTYPE svg PUBLIC "-//W3C//DTD SVG 1.1//EN" "http://www.w3.org/Graphics/SVG/1.1/DTD/svg11.dtd">
<svg xmlns="http://www.w3.org/2000/svg" version="1.1" width="128px" height="128px" style="shape-rendering:geometricPrecision; text-rendering:geometricPrecision; image-rendering:optimizeQuality; fill-rule:evenodd; clip-rule:evenodd" xmlns:xlink="http://www.w3.org/1999/xlink">
<g><path style="opacity:0.697" fill="#f4fafd" d="M 70.5,-0.5 C 78.1667,-0.5 85.8333,-0.5 93.5,-0.5C 96.4844,0.337189 99.3177,1.67052 102,3.5C 102.667,4.83333 102.667,6.16667 102,7.5C 97.2512,8.30517 92.4179,8.80517 87.5,9C 80.7746,11.9365 77.108,17.1032 76.5,24.5C 77.4429,29.829 79.2763,34.829 82,39.5C 88.089,48.005 93.4224,57.005 98,66.5C 98.3243,70.5461 96.491,73.3794 92.5,75C 94.3774,75.5758 96.2108,75.4091 98,74.5C 99.2613,74.7591 100.261,75.4258 101,76.5C 108.861,100.132 101.695,117.132 79.5,127.5C 73.1667,127.5 66.8333,127.5 60.5,127.5C 45.5638,121.182 35.2305,110.349 29.5,95C 30.229,92.7518 31.229,90.5851 32.5,88.5C 31.6126,87.9214 30.4459,87.9214 29,88.5C 27.6739,88.2451 26.6739,87.5784 26,86.5C 18.6863,56.2107 25.853,31.0441 47.5,11C 54.4331,5.53343 62.0997,1.70009 70.5,-0.5 Z"/></g>
<g><path style="opacity:1" fill="#0995d2" d="M 95.5,3.5 C 93.1667,4.16667 90.8333,4.83333 88.5,5.5C 74.5619,10.8946 70.3952,20.5613 76,34.5C 82.6899,45.2139 88.8566,56.2139 94.5,67.5C 94.4712,69.0293 93.8045,70.196 92.5,71C 88.1667,74 83.8333,77 79.5,80C 85.79,79.294 92.1233,78.9607 98.5,79C 104.001,96.1569 99.6681,110.157 85.5,121C 72.8811,126.514 60.8811,125.514 49.5,118C 42.2759,111.449 36.6092,103.782 32.5,95C 36.9516,86.7815 42.6183,79.4482 49.5,73C 42.8165,76.7914 36.1498,80.9581 29.5,85.5C 28.3591,82.9382 27.5257,80.2716 27,77.5C 23.8464,60.1353 27.0131,44.1353 36.5,29.5C 41.1667,31.8333 45.8333,34.1667 50.5,36.5C 50.8333,36.1667 51.1667,35.8333 51.5,35.5C 47.8333,31.5 44.1667,27.5 40.5,23.5C 54.4837,5.3591 72.8171,-1.30756 95.5,3.5 Z"/></g>
<g><path style="opacity:1" fill="#a2d7ee" d="M 95.5,3.5 C 96.9217,3.70858 98.255,4.20858 99.5,5C 95.8484,5.49863 92.1817,5.6653 88.5,5.5C 90.8333,4.83333 93.1667,4.16667 95.5,3.5 Z"/></g>
</svg>
